:SAMPLES-PER-SECOND 30
:FULLY-SPECIFIED
:DEGREES
256
root  35.11636689 36.47781132 -14.96324314 8.390919685 -9.272211075 4.988023758
lowerback  -7.012489796 -1.295245528 -1.046689868
upperback  -3.799949884 -1.197870016 -4.250790119
thorax  -0.06100169942 -0.4356093109 -3.884690046
lowerneck  -9.326609612 -9.493359566 -6.84953022
upperneck  13.85239983 -13.11919975 9.397769928
head  6.841650009 -5.867839813 2.895410061
lclavicle  0 -4.497500157e-015 -2.743230041e-014
lhumerus  -48.78239822 28.7303009 62.3443985
lradius  5.228657756e-007 -6.507048965e-006 30.78700256
lwrist  4.824992743e-007 -3.790274832e-007 -27.76790047
lhand  -0 -36.95510101 -10.36509991
lfingers  90 7.125020027 -90
lthumb  94.77577038 -25.20481961 101.0996093
rclavicle  0 -4.497500157e-015 -2.743230041e-014
rhumerus  -32.73219681 -36.97669601 6.09076786
rradius  -5.16745672e-007 2.214343908e-008 75.86289978
rwrist  -0.0001064338358 0.02974390797 178.0480042
rhand  -1.768241542e-031 3.154350042 -5.80095005
rfingers  -90 -7.125020027 -90
rthumb  -84.50091829 -9.965484567 -60.9121963
rfemur  -13.89076805 16.39804268 10.55968666
rtibia  -1.740955472 -2.637758493 22.17347717
rfoot  0.2826331854 -24.06598091 -32.72567749
rtoes  3.773962694 19.65503736 -101.0955726
lfemur  -8.854894638 -18.18830872 -22.57067871
ltibia  2.334109783 -3.625439882 15.80493736
lfoot  1.470572948 -19.47831917 40.91584396
ltoes  -8.668102293 -18.09370584 -116.1452316
257
root  35.1135314 36.47637255 -14.9634549 8.36635685 -9.208546638 4.970535278
lowerback  -7.025161266 -1.294290066 -1.06344378
upperback  -3.815439939 -1.195628285 -4.235610008
thorax  -0.06903109699 -0.4345901012 -3.858959913
lowerneck  -9.619059563 -9.123660088 -6.574520111
upperneck  14.06820011 -12.6262989 9.244739532
head  6.890900135 -5.612199783 2.846920013
lclavicle  0 -4.497500157e-015 -2.743230041e-014
lhumerus  -48.85240173 28.69560051 62.35240173
lradius  5.228657756e-007 -6.507048965e-006 30.86590004
lwrist  4.824992743e-007 -3.790274832e-007 -27.65180016
lhand  -4.4203722e-031 -36.98149872 -10.36349964
lfingers  90 7.125020027 -90
lthumb  94.78764474 -25.20230088 101.1276582
rclavicle  0 -4.497500157e-015 -2.743230041e-014
rhumerus  -33.68019867 -36.47669983 5.900480747
rradius  -5.16745672e-007 2.214343908e-008 77.02929688
rwrist  -0.0001064338358 0.02974390797 177.8739929
rhand  -1.768210677e-031 3.136149883 -5.818649769
rfingers  -90 -7.125020027 -90
rthumb  -84.51415483 -9.949050752 -60.93144592
rfemur  -13.8343935 16.40563583 10.59769535
rtibia  -1.730427384 -2.603110075 22.1466465
rfoot  0.2867835164 -24.01208496 -32.79322433
rtoes  3.792956318 19.65152032 -101.1520462
lfemur  -8.86286068 -18.17821884 -22.53230667
ltibia  2.305006742 -3.611171961 15.85379696
lfoot  1.449179411 -19.52781487 40.82177353
ltoes  -8.645420154 -18.10427197 -116.0722188
258
root  35.11040154 36.47597606 -14.96378531 8.367419243 -9.139347076 4.956633568
lowerback  -6.997617722 -1.294965267 -1.06475246
upperback  -3.827059984 -1.192989469 -4.228129864
thorax  -0.09589079767 -0.4349464774 -3.849809885
lowerneck  -9.929960251 -8.7582798 -6.24737978
upperneck  14.28320026 -12.14089966 9.041870117
head  6.939449787 -5.361549854 2.772850037
lclavicle  0 -4.497500157e-015 -2.743230041e-014
lhumerus  -48.89680099 28.71150017 62.32939911
lradius  5.228657756e-007 -6.507048965e-006 30.88810158
lwrist  4.824992743e-007 -3.790274832e-007 -27.6298008
lhand  -0 -37.03469849 -10.45030022
lfingers  90 7.125020027 -90
lthumb  94.83085653 -25.28561151 101.1923245
rclavicle  0 -4.497500157e-015 -2.743230041e-014
rhumerus  -34.5381012 -36.1977005 5.605938435
rradius  -5.16745672e-007 2.214343908e-008 78.26059723
rwrist  -0.0001064338358 0.02974390797 177.5390015
rhand  -1.768362706e-031 3.22480011 -5.970089912
rfingers  -90 -7.125020027 -90
rthumb  -84.56717232 -9.821213906 -60.85758115
rfemur  -13.79934788 16.41482353 10.61991501
rtibia  -1.718734384 -2.598070145 22.11488342
rfoot  0.2734183371 -24.01387215 -32.88785172
rtoes  3.798479056 19.65049422 -101.1684687
lfemur  -8.931157112 -18.21953201 -22.47782707
ltibia  2.25431633 -3.631509304 15.94396019
lfoot  1.401721716 -19.51415825 40.68302917
ltoes  -8.65605228 -18.09932348 -116.106438
259
root  35.10692626 36.47542338 -14.96404212 8.362244606 -9.061128616 4.942728519
lowerback  -6.988359451 -1.296763778 -1.058879852
upperback  -3.833610058 -1.191655874 -4.216549873
thorax  -0.1078319997 -0.4362275004 -3.841140032
lowerneck  -10.14640045 -8.401069641 -6.000259876
upperneck  14.42440033 -11.67330074 8.971030235
head  6.965280056 -5.117099762 2.755599976
lclavicle  0 -4.497500157e-015 -2.743230041e-014
lhumerus  -48.90480042 28.80240059 62.28910065
lradius  5.228657756e-007 -6.507048965e-006 30.84659958
lwrist  4.824992743e-007 -3.790274832e-007 -27.71870041
lhand  -4.422273508e-031 -37.0141983 -10.29049969
lfingers  90 7.125020027 -90
lthumb  94.78717414 -25.12951046 101.1559589
rclavicle  0 -4.497500157e-015 -2.743230041e-014
rhumerus  -35.49209976 -35.75849533 5.473547459
rradius  -5.16745672e-007 2.214343908e-008 79.36100006
rwrist  -0.0001064338358 0.02974390797 176.7350006
rhand  -1.768379041e-031 3.234179974 -6.052840233
rfingers  -90 -7.125020027 -90
rthumb  -84.60575523 -9.749444963 -60.85531019
rfemur  -13.77343369 16.34088898 10.65025806
rtibia  -1.716415405 -2.595158339 22.10272598
rfoot  0.2689903677 -24.02083206 -32.90993881
rtoes  3.821813222 19.64614169 -101.2378649
lfemur  -8.934872627 -18.2275238 -22.44269943
ltibia  2.248991013 -3.608019114 15.95531464
lfoot  1.392804861 -19.55208397 40.62726212
ltoes  -8.651916086 -18.10124949 -116.0931247
